<svg width="26" height="23" viewBox="0 0 26 23" fill="none" xmlns="http://www.w3.org/2000/svg">
<path d="M17.8182 6.69699H22.7879C23.4741 6.69699 24.0303 7.25324 24.0303 7.93942V21.6061L19.8893 18.1658C19.6662 17.9804 19.3846 17.8788 19.0946 17.8788H9.12123C8.43506 17.8788 7.87881 17.3226 7.87881 16.6364V12.9091M17.8182 6.69699V2.96972C17.8182 2.28355 17.262 1.72729 16.5758 1.72729H2.90911C2.22294 1.72729 1.66669 2.28355 1.66669 2.96972V16.6368L5.8077 13.1959C6.03076 13.0106 6.31241 12.9091 6.60241 12.9091H7.87881M17.8182 6.69699V11.6667C17.8182 12.3529 17.2619 12.9091 16.5758 12.9091H7.87881" stroke="black" stroke-width="2" stroke-linecap="round" stroke-linejoin="round"/>
</svg>
