<svg width="846" height="759" viewBox="0 0 846 759" fill="none" xmlns="http://www.w3.org/2000/svg">
<circle cx="453" cy="293" r="293" fill="white"/>
<g filter="url(#filter0_d_32_323)">
<path fill-rule="evenodd" clip-rule="evenodd" d="M167.568 226.58C186.779 235.681 206.481 253.488 225.612 283.94C317.76 430.616 423.16 283.94 423.16 283.94C423.16 283.94 534.108 170.139 620.708 283.94C661.001 336.888 706.563 340.566 743.77 329.36C725.878 474.037 602.518 586.03 453 586.03C291.181 586.03 160 454.85 160 293.03C160 270.175 162.617 247.93 167.568 226.58Z" fill="#00B9F1"/>
</g>
<g filter="url(#filter1_d_32_323)">
<path fill-rule="evenodd" clip-rule="evenodd" d="M163.34 343.032C187.641 347.263 212.788 366.774 235.393 413.376C313.163 573.704 417.613 413.376 417.613 413.376C417.613 413.376 530.01 261.198 599.832 413.376C624.984 468.195 654.776 483.519 682.601 480.689C628.927 548.294 546.027 591.647 453 591.647C306.269 591.647 184.73 483.789 163.34 343.032Z" fill="#00296B"/>
</g>
<g filter="url(#filter2_d_32_323)">
<path d="M355.16 147.112H447.192V161.448H434.264V233H416.088V188.456H398.04C402.989 191.699 405.464 196.733 405.464 203.56C405.464 210.557 403.075 216.061 398.296 220.072C393.517 223.997 387.245 225.96 379.48 225.96C373.251 225.96 367.704 225.064 362.84 223.272V207.4C366.851 209.533 371.16 210.6 375.768 210.6C384.216 210.6 388.44 207.101 388.44 200.104C388.44 196.435 386.904 193.576 383.832 191.528C380.76 189.48 376.195 188.456 370.136 188.456V173.736H416.088V161.448H355.16V147.112ZM544.498 147.112V161.448H531.698V233H513.394V184.872C512.882 184.787 512.157 184.744 511.218 184.744C507.122 184.744 504.178 185.768 502.386 187.816C500.594 189.864 499.698 193.149 499.698 197.672V205.992H481.394V197.416C481.394 190.163 478.919 186.536 473.97 186.536C468.338 186.536 465.522 190.76 465.522 199.208C465.522 211.752 472.178 218.024 485.49 218.024C487.197 218.024 489.031 217.896 490.994 217.64V232.36C488.69 232.701 486.173 232.872 483.442 232.872C472.519 232.872 463.815 229.8 457.33 223.656C450.845 217.512 447.602 209.277 447.602 198.952C447.602 190.589 449.735 183.933 454.002 178.984C458.354 174.035 464.37 171.56 472.05 171.56C477.17 171.56 481.309 172.669 484.466 174.888C487.709 177.021 489.714 179.709 490.482 182.952C492.871 174.675 499.442 170.536 510.194 170.536C510.962 170.536 512.029 170.621 513.394 170.792V161.448H439.41V147.112H544.498Z" fill="#00B9F1"/>
</g>
<path d="M280.918 311.832H259.434L255.99 322H241.312L262.14 264.436H278.376L299.204 322H284.362L280.918 311.832ZM277.31 301.008L270.176 279.934L263.124 301.008H277.31ZM333.423 275.752C338.78 275.752 343.044 277.501 346.215 281C349.44 284.444 351.053 289.2 351.053 295.268V322H337.113V297.154C337.113 294.093 336.32 291.715 334.735 290.02C333.15 288.325 331.018 287.478 328.339 287.478C325.66 287.478 323.528 288.325 321.943 290.02C320.358 291.715 319.565 294.093 319.565 297.154V322H305.543V276.244H319.565V282.312C320.986 280.289 322.9 278.704 325.305 277.556C327.71 276.353 330.416 275.752 333.423 275.752ZM405.979 276.244V322H391.957V315.768C390.536 317.791 388.595 319.431 386.135 320.688C383.73 321.891 381.051 322.492 378.099 322.492C374.6 322.492 371.512 321.727 368.833 320.196C366.154 318.611 364.077 316.342 362.601 313.39C361.125 310.438 360.387 306.967 360.387 302.976V276.244H374.327V301.09C374.327 304.151 375.12 306.529 376.705 308.224C378.29 309.919 380.422 310.766 383.101 310.766C385.834 310.766 387.994 309.919 389.579 308.224C391.164 306.529 391.957 304.151 391.957 301.09V276.244H405.979ZM474.435 275.752C480.12 275.752 484.63 277.474 487.965 280.918C491.354 284.362 493.049 289.145 493.049 295.268V322H479.109V297.154C479.109 294.202 478.316 291.933 476.731 290.348C475.2 288.708 473.068 287.888 470.335 287.888C467.601 287.888 465.442 288.708 463.857 290.348C462.326 291.933 461.561 294.202 461.561 297.154V322H447.621V297.154C447.621 294.202 446.828 291.933 445.243 290.348C443.712 288.708 441.58 287.888 438.847 287.888C436.113 287.888 433.954 288.708 432.369 290.348C430.838 291.933 430.073 294.202 430.073 297.154V322H416.051V276.244H430.073V281.984C431.494 280.071 433.353 278.567 435.649 277.474C437.945 276.326 440.541 275.752 443.439 275.752C446.883 275.752 449.944 276.49 452.623 277.966C455.356 279.442 457.488 281.547 459.019 284.28C460.604 281.765 462.763 279.715 465.497 278.13C468.23 276.545 471.209 275.752 474.435 275.752ZM500.067 299.04C500.067 294.339 500.942 290.211 502.691 286.658C504.495 283.105 506.928 280.371 509.989 278.458C513.051 276.545 516.467 275.588 520.239 275.588C523.465 275.588 526.28 276.244 528.685 277.556C531.145 278.868 533.031 280.59 534.343 282.722V276.244H548.365V322H534.343V315.522C532.977 317.654 531.063 319.376 528.603 320.688C526.198 322 523.383 322.656 520.157 322.656C516.44 322.656 513.051 321.699 509.989 319.786C506.928 317.818 504.495 315.057 502.691 311.504C500.942 307.896 500.067 303.741 500.067 299.04ZM534.343 299.122C534.343 295.623 533.359 292.863 531.391 290.84C529.478 288.817 527.127 287.806 524.339 287.806C521.551 287.806 519.173 288.817 517.205 290.84C515.292 292.808 514.335 295.541 514.335 299.04C514.335 302.539 515.292 305.327 517.205 307.404C519.173 309.427 521.551 310.438 524.339 310.438C527.127 310.438 529.478 309.427 531.391 307.404C533.359 305.381 534.343 302.621 534.343 299.122ZM555.722 299.04C555.722 294.339 556.596 290.211 558.346 286.658C560.15 283.105 562.582 280.371 565.644 278.458C568.705 276.545 572.122 275.588 575.894 275.588C579.119 275.588 581.934 276.244 584.34 277.556C586.8 278.868 588.686 280.59 589.998 282.722V276.244H604.02V322H589.998V315.522C588.631 317.654 586.718 319.376 584.258 320.688C581.852 322 579.037 322.656 575.812 322.656C572.094 322.656 568.705 321.699 565.644 319.786C562.582 317.818 560.15 315.057 558.346 311.504C556.596 307.896 555.722 303.741 555.722 299.04ZM589.998 299.122C589.998 295.623 589.014 292.863 587.046 290.84C585.132 288.817 582.782 287.806 579.994 287.806C577.206 287.806 574.828 288.817 572.86 290.84C570.946 292.808 569.99 295.541 569.99 299.04C569.99 302.539 570.946 305.327 572.86 307.404C574.828 309.427 577.206 310.438 579.994 310.438C582.782 310.438 585.132 309.427 587.046 307.404C589.014 305.381 589.998 302.621 589.998 299.122ZM642.044 275.752C647.401 275.752 651.665 277.501 654.836 281C658.061 284.444 659.674 289.2 659.674 295.268V322H645.734V297.154C645.734 294.093 644.941 291.715 643.356 290.02C641.771 288.325 639.639 287.478 636.96 287.478C634.281 287.478 632.149 288.325 630.564 290.02C628.979 291.715 628.186 294.093 628.186 297.154V322H614.164V276.244H628.186V282.312C629.607 280.289 631.521 278.704 633.926 277.556C636.331 276.353 639.037 275.752 642.044 275.752Z" fill="#00296B"/>
<defs>
<filter id="filter0_d_32_323" x="125" y="195.58" width="653.77" height="429.45" filterUnits="userSpaceOnUse" color-interpolation-filters="sRGB">
<feFlood flood-opacity="0" result="BackgroundImageFix"/>
<feColorMatrix in="SourceAlpha" type="matrix" values="0 0 0 0 0 0 0 0 0 0 0 0 0 0 0 0 0 0 127 0" result="hardAlpha"/>
<feOffset dy="4"/>
<feGaussianBlur stdDeviation="17.5"/>
<feComposite in2="hardAlpha" operator="out"/>
<feColorMatrix type="matrix" values="0 0 0 0 0 0 0 0 0 0.72549 0 0 0 0 0.945098 0 0 0 1 0"/>
<feBlend mode="normal" in2="BackgroundImageFix" result="effect1_dropShadow_32_323"/>
<feBlend mode="normal" in="SourceGraphic" in2="effect1_dropShadow_32_323" result="shape"/>
</filter>
<filter id="filter1_d_32_323" x="0.339966" y="184.032" width="845.261" height="574.615" filterUnits="userSpaceOnUse" color-interpolation-filters="sRGB">
<feFlood flood-opacity="0" result="BackgroundImageFix"/>
<feColorMatrix in="SourceAlpha" type="matrix" values="0 0 0 0 0 0 0 0 0 0 0 0 0 0 0 0 0 0 127 0" result="hardAlpha"/>
<feOffset dy="4"/>
<feGaussianBlur stdDeviation="81.5"/>
<feComposite in2="hardAlpha" operator="out"/>
<feColorMatrix type="matrix" values="0 0 0 0 0 0 0 0 0 0.160784 0 0 0 0 0.419608 0 0 0 1 0"/>
<feBlend mode="normal" in2="BackgroundImageFix" result="effect1_dropShadow_32_323"/>
<feBlend mode="normal" in="SourceGraphic" in2="effect1_dropShadow_32_323" result="shape"/>
</filter>
<filter id="filter2_d_32_323" x="351.16" y="147.112" width="197.338" height="93.8879" filterUnits="userSpaceOnUse" color-interpolation-filters="sRGB">
<feFlood flood-opacity="0" result="BackgroundImageFix"/>
<feColorMatrix in="SourceAlpha" type="matrix" values="0 0 0 0 0 0 0 0 0 0 0 0 0 0 0 0 0 0 127 0" result="hardAlpha"/>
<feOffset dy="4"/>
<feGaussianBlur stdDeviation="2"/>
<feComposite in2="hardAlpha" operator="out"/>
<feColorMatrix type="matrix" values="0 0 0 0 0 0 0 0 0 0 0 0 0 0 0 0 0 0 0.25 0"/>
<feBlend mode="normal" in2="BackgroundImageFix" result="effect1_dropShadow_32_323"/>
<feBlend mode="normal" in="SourceGraphic" in2="effect1_dropShadow_32_323" result="shape"/>
</filter>
</defs>
</svg>
